<mxfile host="app.diagrams.net" modified="2024-02-23T13:33:38.698Z" agent="Mozilla/5.0 (Windows NT 10.0; Win64; x64; rv:123.0) Gecko/20100101 Firefox/123.0" etag="vcqKadWwIJw_zg6XQdnc" version="23.1.5" type="device">
  <diagram name="Page-1" id="HOamRKEhcgr0epngXT2c">
    <mxGraphModel dx="954" dy="530" grid="1" gridSize="10" guides="1" tooltips="1" connect="1" arrows="1" fold="1" page="1" pageScale="1" pageWidth="1100" pageHeight="850" math="0" shadow="0">
      <root>
        <mxCell id="0" />
        <mxCell id="1" parent="0" />
        <mxCell id="roSYkn4s_pg60QvExu8k-3" value="" style="edgeStyle=orthogonalEdgeStyle;rounded=0;orthogonalLoop=1;jettySize=auto;html=1;" parent="1" source="oRODH1_oDBL0VGA5POtY-1" target="roSYkn4s_pg60QvExu8k-2" edge="1">
          <mxGeometry relative="1" as="geometry" />
        </mxCell>
        <mxCell id="oRODH1_oDBL0VGA5POtY-1" value="&lt;h1&gt;&lt;font style=&quot;font-size: 18px;&quot;&gt;start&lt;/font&gt;&lt;/h1&gt;" style="ellipse;whiteSpace=wrap;html=1;" parent="1" vertex="1">
          <mxGeometry x="245" width="230" height="60" as="geometry" />
        </mxCell>
        <mxCell id="oRODH1_oDBL0VGA5POtY-2" style="edgeStyle=orthogonalEdgeStyle;rounded=0;orthogonalLoop=1;jettySize=auto;html=1;exitX=0.5;exitY=1;exitDx=0;exitDy=0;" parent="1" source="oRODH1_oDBL0VGA5POtY-1" target="oRODH1_oDBL0VGA5POtY-1" edge="1">
          <mxGeometry relative="1" as="geometry" />
        </mxCell>
        <mxCell id="oRODH1_oDBL0VGA5POtY-6" value="&lt;font style=&quot;font-size: 14px;&quot;&gt;Input&lt;/font&gt;" style="text;html=1;align=center;verticalAlign=middle;whiteSpace=wrap;rounded=0;" parent="1" vertex="1">
          <mxGeometry x="260" y="180" width="60" height="30" as="geometry" />
        </mxCell>
        <mxCell id="oRODH1_oDBL0VGA5POtY-11" value="&lt;div&gt;&lt;font style=&quot;font-size: 14px;&quot;&gt;Process&lt;/font&gt;&lt;/div&gt;" style="text;html=1;align=center;verticalAlign=middle;whiteSpace=wrap;rounded=0;" parent="1" vertex="1">
          <mxGeometry x="240" y="75" width="60" height="30" as="geometry" />
        </mxCell>
        <mxCell id="oRODH1_oDBL0VGA5POtY-15" value="&lt;h1&gt;&lt;font style=&quot;font-size: 18px;&quot;&gt;End&lt;/font&gt;&lt;/h1&gt;" style="ellipse;whiteSpace=wrap;html=1;" parent="1" vertex="1">
          <mxGeometry x="245" y="1230" width="230" height="60" as="geometry" />
        </mxCell>
        <mxCell id="oRODH1_oDBL0VGA5POtY-18" value="&lt;font style=&quot;font-size: 14px;&quot;&gt;Output&lt;/font&gt;" style="text;html=1;align=center;verticalAlign=middle;whiteSpace=wrap;rounded=0;" parent="1" vertex="1">
          <mxGeometry x="260" y="1050" width="60" height="30" as="geometry" />
        </mxCell>
        <mxCell id="roSYkn4s_pg60QvExu8k-9" value="" style="edgeStyle=orthogonalEdgeStyle;rounded=0;orthogonalLoop=1;jettySize=auto;html=1;" parent="1" source="oRODH1_oDBL0VGA5POtY-33" target="roSYkn4s_pg60QvExu8k-5" edge="1">
          <mxGeometry relative="1" as="geometry" />
        </mxCell>
        <mxCell id="oRODH1_oDBL0VGA5POtY-33" value="&lt;font style=&quot;font-size: 14px;&quot;&gt;n&lt;/font&gt;" style="shape=parallelogram;perimeter=parallelogramPerimeter;whiteSpace=wrap;html=1;fixedSize=1;" parent="1" vertex="1">
          <mxGeometry x="240" y="210" width="240" height="60" as="geometry" />
        </mxCell>
        <mxCell id="roSYkn4s_pg60QvExu8k-4" value="" style="edgeStyle=orthogonalEdgeStyle;rounded=0;orthogonalLoop=1;jettySize=auto;html=1;" parent="1" source="roSYkn4s_pg60QvExu8k-2" target="oRODH1_oDBL0VGA5POtY-33" edge="1">
          <mxGeometry relative="1" as="geometry" />
        </mxCell>
        <mxCell id="roSYkn4s_pg60QvExu8k-2" value="&lt;font style=&quot;font-size: 14px;&quot;&gt;sd, ave, sum, n, i = 0&lt;br&gt;numbers = []&lt;br&gt;&lt;/font&gt;" style="rounded=0;whiteSpace=wrap;html=1;" parent="1" vertex="1">
          <mxGeometry x="240" y="105" width="240" height="70" as="geometry" />
        </mxCell>
        <mxCell id="rkIGJ78e-Yk6cTUM0pPi-9" value="" style="edgeStyle=orthogonalEdgeStyle;rounded=0;orthogonalLoop=1;jettySize=auto;html=1;" edge="1" parent="1" source="roSYkn4s_pg60QvExu8k-5" target="rkIGJ78e-Yk6cTUM0pPi-8">
          <mxGeometry relative="1" as="geometry" />
        </mxCell>
        <mxCell id="rkIGJ78e-Yk6cTUM0pPi-33" value="" style="edgeStyle=orthogonalEdgeStyle;rounded=0;orthogonalLoop=1;jettySize=auto;html=1;entryX=0.5;entryY=0;entryDx=0;entryDy=0;" edge="1" parent="1" source="roSYkn4s_pg60QvExu8k-5" target="rkIGJ78e-Yk6cTUM0pPi-27">
          <mxGeometry relative="1" as="geometry">
            <mxPoint x="170" y="350" as="targetPoint" />
          </mxGeometry>
        </mxCell>
        <mxCell id="roSYkn4s_pg60QvExu8k-5" value="&lt;font style=&quot;font-size: 14px;&quot;&gt;i &amp;lt; n&lt;/font&gt;" style="rhombus;whiteSpace=wrap;html=1;" parent="1" vertex="1">
          <mxGeometry x="275" y="310" width="170" height="80" as="geometry" />
        </mxCell>
        <mxCell id="roSYkn4s_pg60QvExu8k-11" value="&lt;font style=&quot;font-size: 14px;&quot;&gt;No&lt;/font&gt;" style="text;html=1;align=center;verticalAlign=middle;whiteSpace=wrap;rounded=0;" parent="1" vertex="1">
          <mxGeometry x="195" y="680" width="60" height="30" as="geometry" />
        </mxCell>
        <mxCell id="roSYkn4s_pg60QvExu8k-12" value="Yes" style="text;html=1;align=center;verticalAlign=middle;whiteSpace=wrap;rounded=0;rotation=270;" parent="1" vertex="1">
          <mxGeometry x="370" y="400" width="30" height="30" as="geometry" />
        </mxCell>
        <mxCell id="rkIGJ78e-Yk6cTUM0pPi-41" value="" style="edgeStyle=orthogonalEdgeStyle;rounded=0;orthogonalLoop=1;jettySize=auto;html=1;" edge="1" parent="1" source="roSYkn4s_pg60QvExu8k-19">
          <mxGeometry relative="1" as="geometry">
            <mxPoint x="370" y="290" as="targetPoint" />
            <Array as="points">
              <mxPoint x="601" y="290" />
            </Array>
          </mxGeometry>
        </mxCell>
        <mxCell id="roSYkn4s_pg60QvExu8k-19" value="&lt;font style=&quot;font-size: 14px;&quot;&gt;i++&lt;/font&gt;" style="rounded=0;whiteSpace=wrap;html=1;" parent="1" vertex="1">
          <mxGeometry x="510" y="435" width="180" height="70" as="geometry" />
        </mxCell>
        <mxCell id="roSYkn4s_pg60QvExu8k-22" value="&lt;div&gt;&lt;font style=&quot;font-size: 14px;&quot;&gt;Process&lt;/font&gt;&lt;/div&gt;" style="text;html=1;align=center;verticalAlign=middle;whiteSpace=wrap;rounded=0;" parent="1" vertex="1">
          <mxGeometry x="30" y="410" width="60" height="30" as="geometry" />
        </mxCell>
        <mxCell id="rkIGJ78e-Yk6cTUM0pPi-14" value="" style="edgeStyle=orthogonalEdgeStyle;rounded=0;orthogonalLoop=1;jettySize=auto;html=1;" edge="1" parent="1" source="rkIGJ78e-Yk6cTUM0pPi-8" target="rkIGJ78e-Yk6cTUM0pPi-12">
          <mxGeometry relative="1" as="geometry" />
        </mxCell>
        <mxCell id="rkIGJ78e-Yk6cTUM0pPi-8" value="&lt;font size=&quot;3&quot;&gt;&lt;/font&gt;&lt;font style=&quot;font-size: 14px;&quot;&gt;numbers&lt;/font&gt;&lt;font size=&quot;3&quot;&gt;[i]&lt;/font&gt;" style="shape=parallelogram;perimeter=parallelogramPerimeter;whiteSpace=wrap;html=1;fixedSize=1;" vertex="1" parent="1">
          <mxGeometry x="240" y="440" width="240" height="60" as="geometry" />
        </mxCell>
        <mxCell id="rkIGJ78e-Yk6cTUM0pPi-16" value="" style="edgeStyle=orthogonalEdgeStyle;rounded=0;orthogonalLoop=1;jettySize=auto;html=1;entryX=0.5;entryY=1;entryDx=0;entryDy=0;" edge="1" parent="1" source="rkIGJ78e-Yk6cTUM0pPi-12" target="roSYkn4s_pg60QvExu8k-19">
          <mxGeometry relative="1" as="geometry">
            <mxPoint x="550" y="585" as="targetPoint" />
          </mxGeometry>
        </mxCell>
        <mxCell id="rkIGJ78e-Yk6cTUM0pPi-12" value="&lt;font size=&quot;3&quot;&gt;ave += &lt;/font&gt;&lt;font style=&quot;font-size: 14px;&quot;&gt;numbers&lt;/font&gt;&lt;font size=&quot;3&quot;&gt;[i]&lt;br&gt;&lt;/font&gt;" style="rounded=0;whiteSpace=wrap;html=1;" vertex="1" parent="1">
          <mxGeometry x="250" y="550" width="220" height="60" as="geometry" />
        </mxCell>
        <mxCell id="rkIGJ78e-Yk6cTUM0pPi-52" value="" style="edgeStyle=orthogonalEdgeStyle;rounded=0;orthogonalLoop=1;jettySize=auto;html=1;" edge="1" parent="1" source="rkIGJ78e-Yk6cTUM0pPi-22" target="rkIGJ78e-Yk6cTUM0pPi-51">
          <mxGeometry relative="1" as="geometry" />
        </mxCell>
        <mxCell id="rkIGJ78e-Yk6cTUM0pPi-22" value="&lt;font style=&quot;font-size: 14px;&quot;&gt;sum&amp;nbsp; += &lt;/font&gt;&lt;font style=&quot;font-size: 14px;&quot;&gt;(numbers&lt;/font&gt;&lt;font size=&quot;3&quot;&gt;[i] - ave) &lt;sup&gt;2&lt;br&gt;&lt;/sup&gt;&lt;/font&gt;" style="rounded=0;whiteSpace=wrap;html=1;" vertex="1" parent="1">
          <mxGeometry x="250" y="800" width="220" height="70" as="geometry" />
        </mxCell>
        <mxCell id="rkIGJ78e-Yk6cTUM0pPi-46" value="" style="edgeStyle=orthogonalEdgeStyle;rounded=0;orthogonalLoop=1;jettySize=auto;html=1;" edge="1" parent="1" source="rkIGJ78e-Yk6cTUM0pPi-23">
          <mxGeometry relative="1" as="geometry">
            <mxPoint x="360" y="795" as="targetPoint" />
          </mxGeometry>
        </mxCell>
        <mxCell id="rkIGJ78e-Yk6cTUM0pPi-57" value="" style="edgeStyle=orthogonalEdgeStyle;rounded=0;orthogonalLoop=1;jettySize=auto;html=1;entryX=0.5;entryY=0;entryDx=0;entryDy=0;" edge="1" parent="1" source="rkIGJ78e-Yk6cTUM0pPi-23" target="rkIGJ78e-Yk6cTUM0pPi-58">
          <mxGeometry relative="1" as="geometry">
            <mxPoint x="360" y="930" as="targetPoint" />
            <Array as="points">
              <mxPoint x="101" y="720" />
              <mxPoint x="101" y="900" />
              <mxPoint x="360" y="900" />
            </Array>
          </mxGeometry>
        </mxCell>
        <mxCell id="rkIGJ78e-Yk6cTUM0pPi-23" value="&lt;font style=&quot;font-size: 14px;&quot;&gt;i &amp;lt; n&lt;/font&gt;" style="rhombus;whiteSpace=wrap;html=1;" vertex="1" parent="1">
          <mxGeometry x="275" y="680" width="170" height="80" as="geometry" />
        </mxCell>
        <mxCell id="rkIGJ78e-Yk6cTUM0pPi-42" value="" style="edgeStyle=orthogonalEdgeStyle;rounded=0;orthogonalLoop=1;jettySize=auto;html=1;" edge="1" parent="1" source="rkIGJ78e-Yk6cTUM0pPi-27" target="rkIGJ78e-Yk6cTUM0pPi-37">
          <mxGeometry relative="1" as="geometry" />
        </mxCell>
        <mxCell id="rkIGJ78e-Yk6cTUM0pPi-27" value="&lt;font size=&quot;3&quot;&gt;i = 0&lt;br&gt;&lt;/font&gt;" style="rounded=0;whiteSpace=wrap;html=1;" vertex="1" parent="1">
          <mxGeometry x="30" y="440" width="180" height="60" as="geometry" />
        </mxCell>
        <mxCell id="rkIGJ78e-Yk6cTUM0pPi-44" value="" style="edgeStyle=orthogonalEdgeStyle;rounded=0;orthogonalLoop=1;jettySize=auto;html=1;entryX=0.5;entryY=0;entryDx=0;entryDy=0;" edge="1" parent="1" source="rkIGJ78e-Yk6cTUM0pPi-37" target="rkIGJ78e-Yk6cTUM0pPi-23">
          <mxGeometry relative="1" as="geometry">
            <mxPoint x="360" y="660" as="targetPoint" />
            <Array as="points">
              <mxPoint x="120" y="640" />
              <mxPoint x="360" y="640" />
            </Array>
          </mxGeometry>
        </mxCell>
        <mxCell id="rkIGJ78e-Yk6cTUM0pPi-37" value="&lt;font size=&quot;3&quot;&gt;ave /= n&lt;br&gt;&lt;/font&gt;" style="rounded=0;whiteSpace=wrap;html=1;" vertex="1" parent="1">
          <mxGeometry x="30" y="550" width="180" height="60" as="geometry" />
        </mxCell>
        <mxCell id="rkIGJ78e-Yk6cTUM0pPi-54" value="" style="edgeStyle=orthogonalEdgeStyle;rounded=0;orthogonalLoop=1;jettySize=auto;html=1;" edge="1" parent="1" source="rkIGJ78e-Yk6cTUM0pPi-51">
          <mxGeometry relative="1" as="geometry">
            <mxPoint x="370" y="660" as="targetPoint" />
            <Array as="points">
              <mxPoint x="650" y="660" />
            </Array>
          </mxGeometry>
        </mxCell>
        <mxCell id="rkIGJ78e-Yk6cTUM0pPi-51" value="&lt;font style=&quot;font-size: 14px;&quot;&gt;i++&lt;/font&gt;" style="rounded=0;whiteSpace=wrap;html=1;" vertex="1" parent="1">
          <mxGeometry x="560" y="800" width="180" height="70" as="geometry" />
        </mxCell>
        <mxCell id="rkIGJ78e-Yk6cTUM0pPi-60" value="" style="edgeStyle=orthogonalEdgeStyle;rounded=0;orthogonalLoop=1;jettySize=auto;html=1;" edge="1" parent="1" source="rkIGJ78e-Yk6cTUM0pPi-58" target="rkIGJ78e-Yk6cTUM0pPi-59">
          <mxGeometry relative="1" as="geometry" />
        </mxCell>
        <mxCell id="rkIGJ78e-Yk6cTUM0pPi-58" value="&lt;font style=&quot;font-size: 14px;&quot;&gt;sd&lt;/font&gt; = Sqrt(sum)" style="rounded=0;whiteSpace=wrap;html=1;" vertex="1" parent="1">
          <mxGeometry x="250" y="960" width="220" height="70" as="geometry" />
        </mxCell>
        <mxCell id="rkIGJ78e-Yk6cTUM0pPi-61" value="" style="edgeStyle=orthogonalEdgeStyle;rounded=0;orthogonalLoop=1;jettySize=auto;html=1;" edge="1" parent="1" source="rkIGJ78e-Yk6cTUM0pPi-59" target="oRODH1_oDBL0VGA5POtY-15">
          <mxGeometry relative="1" as="geometry" />
        </mxCell>
        <mxCell id="rkIGJ78e-Yk6cTUM0pPi-59" value="&lt;font style=&quot;font-size: 14px;&quot;&gt;sd&lt;/font&gt;" style="shape=parallelogram;perimeter=parallelogramPerimeter;whiteSpace=wrap;html=1;fixedSize=1;" vertex="1" parent="1">
          <mxGeometry x="240" y="1080" width="240" height="60" as="geometry" />
        </mxCell>
        <mxCell id="rkIGJ78e-Yk6cTUM0pPi-62" value="Yes" style="text;html=1;align=center;verticalAlign=middle;whiteSpace=wrap;rounded=0;rotation=270;" vertex="1" parent="1">
          <mxGeometry x="370" y="760" width="30" height="30" as="geometry" />
        </mxCell>
        <mxCell id="rkIGJ78e-Yk6cTUM0pPi-63" value="&lt;font style=&quot;font-size: 14px;&quot;&gt;No&lt;/font&gt;" style="text;html=1;align=center;verticalAlign=middle;whiteSpace=wrap;rounded=0;" vertex="1" parent="1">
          <mxGeometry x="195" y="320" width="60" height="30" as="geometry" />
        </mxCell>
        <mxCell id="rkIGJ78e-Yk6cTUM0pPi-64" value="&lt;font style=&quot;font-size: 14px;&quot;&gt;Input&lt;/font&gt;" style="text;html=1;align=center;verticalAlign=middle;whiteSpace=wrap;rounded=0;" vertex="1" parent="1">
          <mxGeometry x="260" y="410" width="60" height="30" as="geometry" />
        </mxCell>
        <mxCell id="rkIGJ78e-Yk6cTUM0pPi-65" value="&lt;div&gt;&lt;font style=&quot;font-size: 14px;&quot;&gt;Process&lt;/font&gt;&lt;/div&gt;" style="text;html=1;align=center;verticalAlign=middle;whiteSpace=wrap;rounded=0;" vertex="1" parent="1">
          <mxGeometry x="30" y="520" width="60" height="30" as="geometry" />
        </mxCell>
        <mxCell id="rkIGJ78e-Yk6cTUM0pPi-67" value="&lt;div&gt;&lt;font style=&quot;font-size: 14px;&quot;&gt;Process&lt;/font&gt;&lt;/div&gt;" style="text;html=1;align=center;verticalAlign=middle;whiteSpace=wrap;rounded=0;" vertex="1" parent="1">
          <mxGeometry x="250" y="520" width="60" height="30" as="geometry" />
        </mxCell>
        <mxCell id="rkIGJ78e-Yk6cTUM0pPi-68" value="&lt;div&gt;&lt;font style=&quot;font-size: 14px;&quot;&gt;Process&lt;/font&gt;&lt;/div&gt;" style="text;html=1;align=center;verticalAlign=middle;whiteSpace=wrap;rounded=0;" vertex="1" parent="1">
          <mxGeometry x="510" y="405" width="60" height="30" as="geometry" />
        </mxCell>
        <mxCell id="rkIGJ78e-Yk6cTUM0pPi-69" value="&lt;div&gt;&lt;font style=&quot;font-size: 14px;&quot;&gt;Process&lt;/font&gt;&lt;/div&gt;" style="text;html=1;align=center;verticalAlign=middle;whiteSpace=wrap;rounded=0;" vertex="1" parent="1">
          <mxGeometry x="560" y="770" width="60" height="30" as="geometry" />
        </mxCell>
        <mxCell id="rkIGJ78e-Yk6cTUM0pPi-70" value="&lt;div&gt;&lt;font style=&quot;font-size: 14px;&quot;&gt;Process&lt;/font&gt;&lt;/div&gt;" style="text;html=1;align=center;verticalAlign=middle;whiteSpace=wrap;rounded=0;" vertex="1" parent="1">
          <mxGeometry x="250" y="770" width="60" height="30" as="geometry" />
        </mxCell>
        <mxCell id="rkIGJ78e-Yk6cTUM0pPi-71" value="&lt;div&gt;&lt;font style=&quot;font-size: 14px;&quot;&gt;Process&lt;/font&gt;&lt;/div&gt;" style="text;html=1;align=center;verticalAlign=middle;whiteSpace=wrap;rounded=0;" vertex="1" parent="1">
          <mxGeometry x="250" y="930" width="60" height="30" as="geometry" />
        </mxCell>
      </root>
    </mxGraphModel>
  </diagram>
</mxfile>
